<mxfile host="app.diagrams.net" agent="Mozilla/5.0 (Windows NT 10.0; Win64; x64) AppleWebKit/537.36 (KHTML, like Gecko) Chrome/131.0.0.0 Safari/537.36" version="24.9.3">
  <diagram name="페이지-1" id="VodNQ9wM1GJ2h7-IXzVh">
    <mxGraphModel dx="2312" dy="1395" grid="0" gridSize="10" guides="1" tooltips="1" connect="1" arrows="1" fold="1" page="0" pageScale="1" pageWidth="827" pageHeight="1169" math="0" shadow="0">
      <root>
        <mxCell id="0" />
        <mxCell id="1" parent="0" />
        <mxCell id="bV2YTDHsMVYoOdqQBs_l-100" value="" style="rounded=0;whiteSpace=wrap;html=1;" vertex="1" parent="1">
          <mxGeometry x="187" y="1451" width="514" height="377" as="geometry" />
        </mxCell>
        <mxCell id="bV2YTDHsMVYoOdqQBs_l-101" value="&amp;nbsp; &amp;nbsp; 상수관로 상세정보" style="rounded=1;whiteSpace=wrap;html=1;fontSize=15;fontStyle=1;align=left;" vertex="1" parent="1">
          <mxGeometry x="186" y="1447" width="519" height="51" as="geometry" />
        </mxCell>
        <mxCell id="bV2YTDHsMVYoOdqQBs_l-4" value="" style="rounded=0;whiteSpace=wrap;html=1;" vertex="1" parent="1">
          <mxGeometry x="129" y="95" width="312" height="470" as="geometry" />
        </mxCell>
        <mxCell id="bV2YTDHsMVYoOdqQBs_l-3" value="데이터 목록" style="rounded=1;whiteSpace=wrap;html=1;fontSize=15;fontStyle=1" vertex="1" parent="1">
          <mxGeometry x="129" y="85" width="311" height="51" as="geometry" />
        </mxCell>
        <mxCell id="bV2YTDHsMVYoOdqQBs_l-5" value="" style="shape=table;startSize=0;container=1;collapsible=0;childLayout=tableLayout;fontSize=15;" vertex="1" parent="1">
          <mxGeometry x="156" y="160" width="255" height="360" as="geometry" />
        </mxCell>
        <mxCell id="bV2YTDHsMVYoOdqQBs_l-6" value="" style="shape=tableRow;horizontal=0;startSize=0;swimlaneHead=0;swimlaneBody=0;strokeColor=inherit;top=0;left=0;bottom=0;right=0;collapsible=0;dropTarget=0;fillColor=none;points=[[0,0.5],[1,0.5]];portConstraint=eastwest;fontSize=16;" vertex="1" parent="bV2YTDHsMVYoOdqQBs_l-5">
          <mxGeometry width="255" height="40" as="geometry" />
        </mxCell>
        <mxCell id="bV2YTDHsMVYoOdqQBs_l-7" value="공통" style="shape=partialRectangle;html=1;whiteSpace=wrap;connectable=0;strokeColor=inherit;overflow=hidden;fillColor=none;top=0;left=0;bottom=0;right=0;pointerEvents=1;fontSize=14;" vertex="1" parent="bV2YTDHsMVYoOdqQBs_l-6">
          <mxGeometry width="255" height="40" as="geometry">
            <mxRectangle width="255" height="40" as="alternateBounds" />
          </mxGeometry>
        </mxCell>
        <mxCell id="bV2YTDHsMVYoOdqQBs_l-10" value="" style="shape=tableRow;horizontal=0;startSize=0;swimlaneHead=0;swimlaneBody=0;strokeColor=inherit;top=0;left=0;bottom=0;right=0;collapsible=0;dropTarget=0;fillColor=none;points=[[0,0.5],[1,0.5]];portConstraint=eastwest;fontSize=16;" vertex="1" parent="bV2YTDHsMVYoOdqQBs_l-5">
          <mxGeometry y="40" width="255" height="40" as="geometry" />
        </mxCell>
        <mxCell id="bV2YTDHsMVYoOdqQBs_l-11" value="&amp;nbsp; 법정읍면동리" style="shape=partialRectangle;html=1;whiteSpace=wrap;connectable=0;strokeColor=inherit;overflow=hidden;fillColor=none;top=0;left=0;bottom=0;right=0;pointerEvents=1;fontSize=14;align=left;" vertex="1" parent="bV2YTDHsMVYoOdqQBs_l-10">
          <mxGeometry width="255" height="40" as="geometry">
            <mxRectangle width="255" height="40" as="alternateBounds" />
          </mxGeometry>
        </mxCell>
        <mxCell id="bV2YTDHsMVYoOdqQBs_l-14" value="" style="shape=tableRow;horizontal=0;startSize=0;swimlaneHead=0;swimlaneBody=0;strokeColor=inherit;top=0;left=0;bottom=0;right=0;collapsible=0;dropTarget=0;fillColor=none;points=[[0,0.5],[1,0.5]];portConstraint=eastwest;fontSize=16;" vertex="1" parent="bV2YTDHsMVYoOdqQBs_l-5">
          <mxGeometry y="80" width="255" height="40" as="geometry" />
        </mxCell>
        <mxCell id="bV2YTDHsMVYoOdqQBs_l-15" value="&amp;nbsp; 국공유지" style="shape=partialRectangle;html=1;whiteSpace=wrap;connectable=0;strokeColor=inherit;overflow=hidden;fillColor=none;top=0;left=0;bottom=0;right=0;pointerEvents=1;fontSize=14;align=left;" vertex="1" parent="bV2YTDHsMVYoOdqQBs_l-14">
          <mxGeometry width="255" height="40" as="geometry">
            <mxRectangle width="255" height="40" as="alternateBounds" />
          </mxGeometry>
        </mxCell>
        <mxCell id="bV2YTDHsMVYoOdqQBs_l-28" style="shape=tableRow;horizontal=0;startSize=0;swimlaneHead=0;swimlaneBody=0;strokeColor=inherit;top=0;left=0;bottom=0;right=0;collapsible=0;dropTarget=0;fillColor=none;points=[[0,0.5],[1,0.5]];portConstraint=eastwest;fontSize=16;" vertex="1" parent="bV2YTDHsMVYoOdqQBs_l-5">
          <mxGeometry y="120" width="255" height="40" as="geometry" />
        </mxCell>
        <mxCell id="bV2YTDHsMVYoOdqQBs_l-29" value="&amp;nbsp; 공유재산(일반)" style="shape=partialRectangle;html=1;whiteSpace=wrap;connectable=0;strokeColor=inherit;overflow=hidden;fillColor=none;top=0;left=0;bottom=0;right=0;pointerEvents=1;fontSize=14;align=left;" vertex="1" parent="bV2YTDHsMVYoOdqQBs_l-28">
          <mxGeometry width="255" height="40" as="geometry">
            <mxRectangle width="255" height="40" as="alternateBounds" />
          </mxGeometry>
        </mxCell>
        <mxCell id="bV2YTDHsMVYoOdqQBs_l-26" style="shape=tableRow;horizontal=0;startSize=0;swimlaneHead=0;swimlaneBody=0;strokeColor=inherit;top=0;left=0;bottom=0;right=0;collapsible=0;dropTarget=0;fillColor=none;points=[[0,0.5],[1,0.5]];portConstraint=eastwest;fontSize=16;" vertex="1" parent="bV2YTDHsMVYoOdqQBs_l-5">
          <mxGeometry y="160" width="255" height="40" as="geometry" />
        </mxCell>
        <mxCell id="bV2YTDHsMVYoOdqQBs_l-27" value="&amp;nbsp; 공유재산(행정)" style="shape=partialRectangle;html=1;whiteSpace=wrap;connectable=0;strokeColor=inherit;overflow=hidden;fillColor=none;top=0;left=0;bottom=0;right=0;pointerEvents=1;fontSize=14;align=left;" vertex="1" parent="bV2YTDHsMVYoOdqQBs_l-26">
          <mxGeometry width="255" height="40" as="geometry">
            <mxRectangle width="255" height="40" as="alternateBounds" />
          </mxGeometry>
        </mxCell>
        <mxCell id="bV2YTDHsMVYoOdqQBs_l-24" style="shape=tableRow;horizontal=0;startSize=0;swimlaneHead=0;swimlaneBody=0;strokeColor=inherit;top=0;left=0;bottom=0;right=0;collapsible=0;dropTarget=0;fillColor=none;points=[[0,0.5],[1,0.5]];portConstraint=eastwest;fontSize=16;" vertex="1" parent="bV2YTDHsMVYoOdqQBs_l-5">
          <mxGeometry y="200" width="255" height="40" as="geometry" />
        </mxCell>
        <mxCell id="bV2YTDHsMVYoOdqQBs_l-25" value="도로" style="shape=partialRectangle;html=1;whiteSpace=wrap;connectable=0;strokeColor=inherit;overflow=hidden;fillColor=none;top=0;left=0;bottom=0;right=0;pointerEvents=1;fontSize=14;align=center;" vertex="1" parent="bV2YTDHsMVYoOdqQBs_l-24">
          <mxGeometry width="255" height="40" as="geometry">
            <mxRectangle width="255" height="40" as="alternateBounds" />
          </mxGeometry>
        </mxCell>
        <mxCell id="bV2YTDHsMVYoOdqQBs_l-22" style="shape=tableRow;horizontal=0;startSize=0;swimlaneHead=0;swimlaneBody=0;strokeColor=inherit;top=0;left=0;bottom=0;right=0;collapsible=0;dropTarget=0;fillColor=none;points=[[0,0.5],[1,0.5]];portConstraint=eastwest;fontSize=16;" vertex="1" parent="bV2YTDHsMVYoOdqQBs_l-5">
          <mxGeometry y="240" width="255" height="40" as="geometry" />
        </mxCell>
        <mxCell id="bV2YTDHsMVYoOdqQBs_l-23" value="상수" style="shape=partialRectangle;html=1;whiteSpace=wrap;connectable=0;strokeColor=inherit;overflow=hidden;fillColor=none;top=0;left=0;bottom=0;right=0;pointerEvents=1;fontSize=14;align=center;" vertex="1" parent="bV2YTDHsMVYoOdqQBs_l-22">
          <mxGeometry width="255" height="40" as="geometry">
            <mxRectangle width="255" height="40" as="alternateBounds" />
          </mxGeometry>
        </mxCell>
        <mxCell id="bV2YTDHsMVYoOdqQBs_l-20" style="shape=tableRow;horizontal=0;startSize=0;swimlaneHead=0;swimlaneBody=0;strokeColor=inherit;top=0;left=0;bottom=0;right=0;collapsible=0;dropTarget=0;fillColor=none;points=[[0,0.5],[1,0.5]];portConstraint=eastwest;fontSize=16;" vertex="1" parent="bV2YTDHsMVYoOdqQBs_l-5">
          <mxGeometry y="280" width="255" height="40" as="geometry" />
        </mxCell>
        <mxCell id="bV2YTDHsMVYoOdqQBs_l-21" value="하수" style="shape=partialRectangle;html=1;whiteSpace=wrap;connectable=0;strokeColor=inherit;overflow=hidden;fillColor=none;top=0;left=0;bottom=0;right=0;pointerEvents=1;fontSize=14;align=center;" vertex="1" parent="bV2YTDHsMVYoOdqQBs_l-20">
          <mxGeometry width="255" height="40" as="geometry">
            <mxRectangle width="255" height="40" as="alternateBounds" />
          </mxGeometry>
        </mxCell>
        <mxCell id="bV2YTDHsMVYoOdqQBs_l-18" style="shape=tableRow;horizontal=0;startSize=0;swimlaneHead=0;swimlaneBody=0;strokeColor=inherit;top=0;left=0;bottom=0;right=0;collapsible=0;dropTarget=0;fillColor=none;points=[[0,0.5],[1,0.5]];portConstraint=eastwest;fontSize=16;" vertex="1" parent="bV2YTDHsMVYoOdqQBs_l-5">
          <mxGeometry y="320" width="255" height="40" as="geometry" />
        </mxCell>
        <mxCell id="bV2YTDHsMVYoOdqQBs_l-19" value="지하시설물" style="shape=partialRectangle;html=1;whiteSpace=wrap;connectable=0;strokeColor=inherit;overflow=hidden;fillColor=none;top=0;left=0;bottom=0;right=0;pointerEvents=1;fontSize=14;align=center;" vertex="1" parent="bV2YTDHsMVYoOdqQBs_l-18">
          <mxGeometry width="255" height="40" as="geometry">
            <mxRectangle width="255" height="40" as="alternateBounds" />
          </mxGeometry>
        </mxCell>
        <mxCell id="bV2YTDHsMVYoOdqQBs_l-30" value="X" style="text;html=1;align=center;verticalAlign=middle;whiteSpace=wrap;rounded=0;fontStyle=1;fontSize=20;" vertex="1" parent="1">
          <mxGeometry x="390" y="93" width="60" height="30" as="geometry" />
        </mxCell>
        <mxCell id="bV2YTDHsMVYoOdqQBs_l-31" value="데이터 조회" style="rounded=0;whiteSpace=wrap;html=1;fontSize=15;" vertex="1" parent="1">
          <mxGeometry x="232" y="-3" width="115" height="42" as="geometry" />
        </mxCell>
        <mxCell id="bV2YTDHsMVYoOdqQBs_l-32" value="" style="endArrow=classic;html=1;rounded=0;" edge="1" parent="1">
          <mxGeometry width="50" height="50" relative="1" as="geometry">
            <mxPoint x="291" y="47" as="sourcePoint" />
            <mxPoint x="291" y="78" as="targetPoint" />
          </mxGeometry>
        </mxCell>
        <mxCell id="bV2YTDHsMVYoOdqQBs_l-33" value="" style="rounded=0;whiteSpace=wrap;html=1;" vertex="1" parent="1">
          <mxGeometry x="-39" y="673" width="312" height="428" as="geometry" />
        </mxCell>
        <mxCell id="bV2YTDHsMVYoOdqQBs_l-34" value="검색조건" style="rounded=1;whiteSpace=wrap;html=1;fontSize=15;fontStyle=1" vertex="1" parent="1">
          <mxGeometry x="-39" y="663" width="311" height="51" as="geometry" />
        </mxCell>
        <mxCell id="bV2YTDHsMVYoOdqQBs_l-54" value="X" style="text;html=1;align=center;verticalAlign=middle;whiteSpace=wrap;rounded=0;fontStyle=1;fontSize=20;" vertex="1" parent="1">
          <mxGeometry x="222" y="671" width="60" height="30" as="geometry" />
        </mxCell>
        <mxCell id="bV2YTDHsMVYoOdqQBs_l-55" value="공사번호" style="text;html=1;align=center;verticalAlign=middle;whiteSpace=wrap;rounded=0;" vertex="1" parent="1">
          <mxGeometry x="-23" y="727" width="60" height="30" as="geometry" />
        </mxCell>
        <mxCell id="bV2YTDHsMVYoOdqQBs_l-56" value="" style="rounded=0;whiteSpace=wrap;html=1;" vertex="1" parent="1">
          <mxGeometry x="-23" y="757" width="281" height="34" as="geometry" />
        </mxCell>
        <mxCell id="bV2YTDHsMVYoOdqQBs_l-57" value="상수관용도" style="text;html=1;align=center;verticalAlign=middle;whiteSpace=wrap;rounded=0;" vertex="1" parent="1">
          <mxGeometry x="-23" y="805" width="73" height="30" as="geometry" />
        </mxCell>
        <mxCell id="bV2YTDHsMVYoOdqQBs_l-58" value="전체" style="rounded=0;whiteSpace=wrap;html=1;" vertex="1" parent="1">
          <mxGeometry x="-23" y="835" width="281" height="34" as="geometry" />
        </mxCell>
        <mxCell id="bV2YTDHsMVYoOdqQBs_l-59" value="행정읍면동" style="text;html=1;align=center;verticalAlign=middle;whiteSpace=wrap;rounded=0;" vertex="1" parent="1">
          <mxGeometry x="-24" y="886" width="72" height="30" as="geometry" />
        </mxCell>
        <mxCell id="bV2YTDHsMVYoOdqQBs_l-60" value="" style="rounded=0;whiteSpace=wrap;html=1;" vertex="1" parent="1">
          <mxGeometry x="-24" y="916" width="281" height="34" as="geometry" />
        </mxCell>
        <mxCell id="bV2YTDHsMVYoOdqQBs_l-61" value="접합종류" style="text;html=1;align=center;verticalAlign=middle;whiteSpace=wrap;rounded=0;" vertex="1" parent="1">
          <mxGeometry x="-23.5" y="970" width="60" height="30" as="geometry" />
        </mxCell>
        <mxCell id="bV2YTDHsMVYoOdqQBs_l-62" value="" style="rounded=0;whiteSpace=wrap;html=1;" vertex="1" parent="1">
          <mxGeometry x="-23.5" y="1000" width="281" height="34" as="geometry" />
        </mxCell>
        <mxCell id="bV2YTDHsMVYoOdqQBs_l-63" value="검색" style="rounded=0;whiteSpace=wrap;html=1;fontSize=15;" vertex="1" parent="1">
          <mxGeometry x="-23" y="1053" width="282" height="37" as="geometry" />
        </mxCell>
        <mxCell id="bV2YTDHsMVYoOdqQBs_l-64" value="&amp;gt;" style="text;html=1;align=center;verticalAlign=middle;whiteSpace=wrap;rounded=0;rotation=90;fontSize=18;" vertex="1" parent="1">
          <mxGeometry x="217" y="839" width="42" height="30" as="geometry" />
        </mxCell>
        <mxCell id="bV2YTDHsMVYoOdqQBs_l-65" value="" style="rounded=0;whiteSpace=wrap;html=1;" vertex="1" parent="1">
          <mxGeometry x="-39" y="1105" width="909" height="238" as="geometry" />
        </mxCell>
        <mxCell id="bV2YTDHsMVYoOdqQBs_l-66" value="&amp;nbsp; &amp;nbsp; 상수관로" style="rounded=1;whiteSpace=wrap;html=1;fontSize=15;fontStyle=1;align=left;" vertex="1" parent="1">
          <mxGeometry x="-39" y="1105" width="907" height="51" as="geometry" />
        </mxCell>
        <mxCell id="bV2YTDHsMVYoOdqQBs_l-68" value="" style="shape=table;startSize=0;container=1;collapsible=0;childLayout=tableLayout;fontSize=16;" vertex="1" parent="1">
          <mxGeometry x="-3" y="1173" width="830" height="120" as="geometry" />
        </mxCell>
        <mxCell id="bV2YTDHsMVYoOdqQBs_l-69" value="" style="shape=tableRow;horizontal=0;startSize=0;swimlaneHead=0;swimlaneBody=0;strokeColor=inherit;top=0;left=0;bottom=0;right=0;collapsible=0;dropTarget=0;fillColor=none;points=[[0,0.5],[1,0.5]];portConstraint=eastwest;fontSize=16;" vertex="1" parent="bV2YTDHsMVYoOdqQBs_l-68">
          <mxGeometry width="830" height="40" as="geometry" />
        </mxCell>
        <mxCell id="bV2YTDHsMVYoOdqQBs_l-70" value="도형식별번호" style="shape=partialRectangle;html=1;whiteSpace=wrap;connectable=0;strokeColor=inherit;overflow=hidden;fillColor=none;top=0;left=0;bottom=0;right=0;pointerEvents=1;fontSize=16;" vertex="1" parent="bV2YTDHsMVYoOdqQBs_l-69">
          <mxGeometry width="138" height="40" as="geometry">
            <mxRectangle width="138" height="40" as="alternateBounds" />
          </mxGeometry>
        </mxCell>
        <mxCell id="bV2YTDHsMVYoOdqQBs_l-71" value="지형지물부호" style="shape=partialRectangle;html=1;whiteSpace=wrap;connectable=0;strokeColor=inherit;overflow=hidden;fillColor=none;top=0;left=0;bottom=0;right=0;pointerEvents=1;fontSize=16;" vertex="1" parent="bV2YTDHsMVYoOdqQBs_l-69">
          <mxGeometry x="138" width="140" height="40" as="geometry">
            <mxRectangle width="140" height="40" as="alternateBounds" />
          </mxGeometry>
        </mxCell>
        <mxCell id="bV2YTDHsMVYoOdqQBs_l-72" value="관리번호" style="shape=partialRectangle;html=1;whiteSpace=wrap;connectable=0;strokeColor=inherit;overflow=hidden;fillColor=none;top=0;left=0;bottom=0;right=0;pointerEvents=1;fontSize=16;" vertex="1" parent="bV2YTDHsMVYoOdqQBs_l-69">
          <mxGeometry x="278" width="138" height="40" as="geometry">
            <mxRectangle width="138" height="40" as="alternateBounds" />
          </mxGeometry>
        </mxCell>
        <mxCell id="bV2YTDHsMVYoOdqQBs_l-83" value="설치일자" style="shape=partialRectangle;html=1;whiteSpace=wrap;connectable=0;strokeColor=inherit;overflow=hidden;fillColor=none;top=0;left=0;bottom=0;right=0;pointerEvents=1;fontSize=16;" vertex="1" parent="bV2YTDHsMVYoOdqQBs_l-69">
          <mxGeometry x="416" width="138" height="40" as="geometry">
            <mxRectangle width="138" height="40" as="alternateBounds" />
          </mxGeometry>
        </mxCell>
        <mxCell id="bV2YTDHsMVYoOdqQBs_l-82" value="관재질" style="shape=partialRectangle;html=1;whiteSpace=wrap;connectable=0;strokeColor=inherit;overflow=hidden;fillColor=none;top=0;left=0;bottom=0;right=0;pointerEvents=1;fontSize=16;" vertex="1" parent="bV2YTDHsMVYoOdqQBs_l-69">
          <mxGeometry x="554" width="138" height="40" as="geometry">
            <mxRectangle width="138" height="40" as="alternateBounds" />
          </mxGeometry>
        </mxCell>
        <mxCell id="bV2YTDHsMVYoOdqQBs_l-81" value="관경" style="shape=partialRectangle;html=1;whiteSpace=wrap;connectable=0;strokeColor=inherit;overflow=hidden;fillColor=none;top=0;left=0;bottom=0;right=0;pointerEvents=1;fontSize=16;" vertex="1" parent="bV2YTDHsMVYoOdqQBs_l-69">
          <mxGeometry x="692" width="138" height="40" as="geometry">
            <mxRectangle width="138" height="40" as="alternateBounds" />
          </mxGeometry>
        </mxCell>
        <mxCell id="bV2YTDHsMVYoOdqQBs_l-91" style="shape=tableRow;horizontal=0;startSize=0;swimlaneHead=0;swimlaneBody=0;strokeColor=inherit;top=0;left=0;bottom=0;right=0;collapsible=0;dropTarget=0;fillColor=none;points=[[0,0.5],[1,0.5]];portConstraint=eastwest;fontSize=16;" vertex="1" parent="bV2YTDHsMVYoOdqQBs_l-68">
          <mxGeometry y="40" width="830" height="40" as="geometry" />
        </mxCell>
        <mxCell id="bV2YTDHsMVYoOdqQBs_l-92" style="shape=partialRectangle;html=1;whiteSpace=wrap;connectable=0;strokeColor=inherit;overflow=hidden;fillColor=none;top=0;left=0;bottom=0;right=0;pointerEvents=1;fontSize=16;" vertex="1" parent="bV2YTDHsMVYoOdqQBs_l-91">
          <mxGeometry width="138" height="40" as="geometry">
            <mxRectangle width="138" height="40" as="alternateBounds" />
          </mxGeometry>
        </mxCell>
        <mxCell id="bV2YTDHsMVYoOdqQBs_l-93" style="shape=partialRectangle;html=1;whiteSpace=wrap;connectable=0;strokeColor=inherit;overflow=hidden;fillColor=none;top=0;left=0;bottom=0;right=0;pointerEvents=1;fontSize=16;" vertex="1" parent="bV2YTDHsMVYoOdqQBs_l-91">
          <mxGeometry x="138" width="140" height="40" as="geometry">
            <mxRectangle width="140" height="40" as="alternateBounds" />
          </mxGeometry>
        </mxCell>
        <mxCell id="bV2YTDHsMVYoOdqQBs_l-94" style="shape=partialRectangle;html=1;whiteSpace=wrap;connectable=0;strokeColor=inherit;overflow=hidden;fillColor=none;top=0;left=0;bottom=0;right=0;pointerEvents=1;fontSize=16;" vertex="1" parent="bV2YTDHsMVYoOdqQBs_l-91">
          <mxGeometry x="278" width="138" height="40" as="geometry">
            <mxRectangle width="138" height="40" as="alternateBounds" />
          </mxGeometry>
        </mxCell>
        <mxCell id="bV2YTDHsMVYoOdqQBs_l-95" style="shape=partialRectangle;html=1;whiteSpace=wrap;connectable=0;strokeColor=inherit;overflow=hidden;fillColor=none;top=0;left=0;bottom=0;right=0;pointerEvents=1;fontSize=16;" vertex="1" parent="bV2YTDHsMVYoOdqQBs_l-91">
          <mxGeometry x="416" width="138" height="40" as="geometry">
            <mxRectangle width="138" height="40" as="alternateBounds" />
          </mxGeometry>
        </mxCell>
        <mxCell id="bV2YTDHsMVYoOdqQBs_l-96" style="shape=partialRectangle;html=1;whiteSpace=wrap;connectable=0;strokeColor=inherit;overflow=hidden;fillColor=none;top=0;left=0;bottom=0;right=0;pointerEvents=1;fontSize=16;" vertex="1" parent="bV2YTDHsMVYoOdqQBs_l-91">
          <mxGeometry x="554" width="138" height="40" as="geometry">
            <mxRectangle width="138" height="40" as="alternateBounds" />
          </mxGeometry>
        </mxCell>
        <mxCell id="bV2YTDHsMVYoOdqQBs_l-97" style="shape=partialRectangle;html=1;whiteSpace=wrap;connectable=0;strokeColor=inherit;overflow=hidden;fillColor=none;top=0;left=0;bottom=0;right=0;pointerEvents=1;fontSize=16;" vertex="1" parent="bV2YTDHsMVYoOdqQBs_l-91">
          <mxGeometry x="692" width="138" height="40" as="geometry">
            <mxRectangle width="138" height="40" as="alternateBounds" />
          </mxGeometry>
        </mxCell>
        <mxCell id="bV2YTDHsMVYoOdqQBs_l-84" style="shape=tableRow;horizontal=0;startSize=0;swimlaneHead=0;swimlaneBody=0;strokeColor=inherit;top=0;left=0;bottom=0;right=0;collapsible=0;dropTarget=0;fillColor=none;points=[[0,0.5],[1,0.5]];portConstraint=eastwest;fontSize=16;" vertex="1" parent="bV2YTDHsMVYoOdqQBs_l-68">
          <mxGeometry y="80" width="830" height="40" as="geometry" />
        </mxCell>
        <mxCell id="bV2YTDHsMVYoOdqQBs_l-85" style="shape=partialRectangle;html=1;whiteSpace=wrap;connectable=0;strokeColor=inherit;overflow=hidden;fillColor=none;top=0;left=0;bottom=0;right=0;pointerEvents=1;fontSize=16;" vertex="1" parent="bV2YTDHsMVYoOdqQBs_l-84">
          <mxGeometry width="138" height="40" as="geometry">
            <mxRectangle width="138" height="40" as="alternateBounds" />
          </mxGeometry>
        </mxCell>
        <mxCell id="bV2YTDHsMVYoOdqQBs_l-86" style="shape=partialRectangle;html=1;whiteSpace=wrap;connectable=0;strokeColor=inherit;overflow=hidden;fillColor=none;top=0;left=0;bottom=0;right=0;pointerEvents=1;fontSize=16;" vertex="1" parent="bV2YTDHsMVYoOdqQBs_l-84">
          <mxGeometry x="138" width="140" height="40" as="geometry">
            <mxRectangle width="140" height="40" as="alternateBounds" />
          </mxGeometry>
        </mxCell>
        <mxCell id="bV2YTDHsMVYoOdqQBs_l-87" style="shape=partialRectangle;html=1;whiteSpace=wrap;connectable=0;strokeColor=inherit;overflow=hidden;fillColor=none;top=0;left=0;bottom=0;right=0;pointerEvents=1;fontSize=16;" vertex="1" parent="bV2YTDHsMVYoOdqQBs_l-84">
          <mxGeometry x="278" width="138" height="40" as="geometry">
            <mxRectangle width="138" height="40" as="alternateBounds" />
          </mxGeometry>
        </mxCell>
        <mxCell id="bV2YTDHsMVYoOdqQBs_l-88" style="shape=partialRectangle;html=1;whiteSpace=wrap;connectable=0;strokeColor=inherit;overflow=hidden;fillColor=none;top=0;left=0;bottom=0;right=0;pointerEvents=1;fontSize=16;" vertex="1" parent="bV2YTDHsMVYoOdqQBs_l-84">
          <mxGeometry x="416" width="138" height="40" as="geometry">
            <mxRectangle width="138" height="40" as="alternateBounds" />
          </mxGeometry>
        </mxCell>
        <mxCell id="bV2YTDHsMVYoOdqQBs_l-89" style="shape=partialRectangle;html=1;whiteSpace=wrap;connectable=0;strokeColor=inherit;overflow=hidden;fillColor=none;top=0;left=0;bottom=0;right=0;pointerEvents=1;fontSize=16;" vertex="1" parent="bV2YTDHsMVYoOdqQBs_l-84">
          <mxGeometry x="554" width="138" height="40" as="geometry">
            <mxRectangle width="138" height="40" as="alternateBounds" />
          </mxGeometry>
        </mxCell>
        <mxCell id="bV2YTDHsMVYoOdqQBs_l-90" style="shape=partialRectangle;html=1;whiteSpace=wrap;connectable=0;strokeColor=inherit;overflow=hidden;fillColor=none;top=0;left=0;bottom=0;right=0;pointerEvents=1;fontSize=16;" vertex="1" parent="bV2YTDHsMVYoOdqQBs_l-84">
          <mxGeometry x="692" width="138" height="40" as="geometry">
            <mxRectangle width="138" height="40" as="alternateBounds" />
          </mxGeometry>
        </mxCell>
        <mxCell id="bV2YTDHsMVYoOdqQBs_l-67" value="X" style="text;html=1;align=center;verticalAlign=middle;whiteSpace=wrap;rounded=0;fontStyle=1;fontSize=20;" vertex="1" parent="1">
          <mxGeometry x="652" y="1457.5" width="56" height="30" as="geometry" />
        </mxCell>
        <mxCell id="bV2YTDHsMVYoOdqQBs_l-98" value="&amp;lt; 1 2 3 &amp;gt;" style="text;html=1;align=center;verticalAlign=middle;whiteSpace=wrap;rounded=0;" vertex="1" parent="1">
          <mxGeometry x="371" y="1305" width="60" height="30" as="geometry" />
        </mxCell>
        <mxCell id="bV2YTDHsMVYoOdqQBs_l-102" value="X" style="text;html=1;align=center;verticalAlign=middle;whiteSpace=wrap;rounded=0;fontStyle=1;fontSize=20;" vertex="1" parent="1">
          <mxGeometry x="812" y="1115" width="60" height="30" as="geometry" />
        </mxCell>
        <mxCell id="bV2YTDHsMVYoOdqQBs_l-104" value="" style="shape=table;startSize=0;container=1;collapsible=0;childLayout=tableLayout;fontSize=16;" vertex="1" parent="1">
          <mxGeometry x="233" y="1519" width="419" height="280" as="geometry" />
        </mxCell>
        <mxCell id="bV2YTDHsMVYoOdqQBs_l-105" value="" style="shape=tableRow;horizontal=0;startSize=0;swimlaneHead=0;swimlaneBody=0;strokeColor=inherit;top=0;left=0;bottom=0;right=0;collapsible=0;dropTarget=0;fillColor=none;points=[[0,0.5],[1,0.5]];portConstraint=eastwest;fontSize=16;" vertex="1" parent="bV2YTDHsMVYoOdqQBs_l-104">
          <mxGeometry width="419" height="40" as="geometry" />
        </mxCell>
        <mxCell id="bV2YTDHsMVYoOdqQBs_l-106" value="도형식별번호" style="shape=partialRectangle;html=1;whiteSpace=wrap;connectable=0;strokeColor=inherit;overflow=hidden;fillColor=none;top=0;left=0;bottom=0;right=0;pointerEvents=1;fontSize=16;" vertex="1" parent="bV2YTDHsMVYoOdqQBs_l-105">
          <mxGeometry width="142" height="40" as="geometry">
            <mxRectangle width="142" height="40" as="alternateBounds" />
          </mxGeometry>
        </mxCell>
        <mxCell id="bV2YTDHsMVYoOdqQBs_l-107" value="" style="shape=partialRectangle;html=1;whiteSpace=wrap;connectable=0;strokeColor=inherit;overflow=hidden;fillColor=none;top=0;left=0;bottom=0;right=0;pointerEvents=1;fontSize=16;" vertex="1" parent="bV2YTDHsMVYoOdqQBs_l-105">
          <mxGeometry x="142" width="277" height="40" as="geometry">
            <mxRectangle width="277" height="40" as="alternateBounds" />
          </mxGeometry>
        </mxCell>
        <mxCell id="bV2YTDHsMVYoOdqQBs_l-112" style="shape=tableRow;horizontal=0;startSize=0;swimlaneHead=0;swimlaneBody=0;strokeColor=inherit;top=0;left=0;bottom=0;right=0;collapsible=0;dropTarget=0;fillColor=none;points=[[0,0.5],[1,0.5]];portConstraint=eastwest;fontSize=16;" vertex="1" parent="bV2YTDHsMVYoOdqQBs_l-104">
          <mxGeometry y="40" width="419" height="40" as="geometry" />
        </mxCell>
        <mxCell id="bV2YTDHsMVYoOdqQBs_l-113" value="지형지물부호" style="shape=partialRectangle;html=1;whiteSpace=wrap;connectable=0;strokeColor=inherit;overflow=hidden;fillColor=none;top=0;left=0;bottom=0;right=0;pointerEvents=1;fontSize=16;" vertex="1" parent="bV2YTDHsMVYoOdqQBs_l-112">
          <mxGeometry width="142" height="40" as="geometry">
            <mxRectangle width="142" height="40" as="alternateBounds" />
          </mxGeometry>
        </mxCell>
        <mxCell id="bV2YTDHsMVYoOdqQBs_l-114" style="shape=partialRectangle;html=1;whiteSpace=wrap;connectable=0;strokeColor=inherit;overflow=hidden;fillColor=none;top=0;left=0;bottom=0;right=0;pointerEvents=1;fontSize=16;" vertex="1" parent="bV2YTDHsMVYoOdqQBs_l-112">
          <mxGeometry x="142" width="277" height="40" as="geometry">
            <mxRectangle width="277" height="40" as="alternateBounds" />
          </mxGeometry>
        </mxCell>
        <mxCell id="bV2YTDHsMVYoOdqQBs_l-119" style="shape=tableRow;horizontal=0;startSize=0;swimlaneHead=0;swimlaneBody=0;strokeColor=inherit;top=0;left=0;bottom=0;right=0;collapsible=0;dropTarget=0;fillColor=none;points=[[0,0.5],[1,0.5]];portConstraint=eastwest;fontSize=16;" vertex="1" parent="bV2YTDHsMVYoOdqQBs_l-104">
          <mxGeometry y="80" width="419" height="40" as="geometry" />
        </mxCell>
        <mxCell id="bV2YTDHsMVYoOdqQBs_l-120" value="관리번호" style="shape=partialRectangle;html=1;whiteSpace=wrap;connectable=0;strokeColor=inherit;overflow=hidden;fillColor=none;top=0;left=0;bottom=0;right=0;pointerEvents=1;fontSize=16;" vertex="1" parent="bV2YTDHsMVYoOdqQBs_l-119">
          <mxGeometry width="142" height="40" as="geometry">
            <mxRectangle width="142" height="40" as="alternateBounds" />
          </mxGeometry>
        </mxCell>
        <mxCell id="bV2YTDHsMVYoOdqQBs_l-121" style="shape=partialRectangle;html=1;whiteSpace=wrap;connectable=0;strokeColor=inherit;overflow=hidden;fillColor=none;top=0;left=0;bottom=0;right=0;pointerEvents=1;fontSize=16;" vertex="1" parent="bV2YTDHsMVYoOdqQBs_l-119">
          <mxGeometry x="142" width="277" height="40" as="geometry">
            <mxRectangle width="277" height="40" as="alternateBounds" />
          </mxGeometry>
        </mxCell>
        <mxCell id="bV2YTDHsMVYoOdqQBs_l-135" style="shape=tableRow;horizontal=0;startSize=0;swimlaneHead=0;swimlaneBody=0;strokeColor=inherit;top=0;left=0;bottom=0;right=0;collapsible=0;dropTarget=0;fillColor=none;points=[[0,0.5],[1,0.5]];portConstraint=eastwest;fontSize=16;" vertex="1" parent="bV2YTDHsMVYoOdqQBs_l-104">
          <mxGeometry y="120" width="419" height="40" as="geometry" />
        </mxCell>
        <mxCell id="bV2YTDHsMVYoOdqQBs_l-136" value="설치일자" style="shape=partialRectangle;html=1;whiteSpace=wrap;connectable=0;strokeColor=inherit;overflow=hidden;fillColor=none;top=0;left=0;bottom=0;right=0;pointerEvents=1;fontSize=16;" vertex="1" parent="bV2YTDHsMVYoOdqQBs_l-135">
          <mxGeometry width="142" height="40" as="geometry">
            <mxRectangle width="142" height="40" as="alternateBounds" />
          </mxGeometry>
        </mxCell>
        <mxCell id="bV2YTDHsMVYoOdqQBs_l-137" style="shape=partialRectangle;html=1;whiteSpace=wrap;connectable=0;strokeColor=inherit;overflow=hidden;fillColor=none;top=0;left=0;bottom=0;right=0;pointerEvents=1;fontSize=16;" vertex="1" parent="bV2YTDHsMVYoOdqQBs_l-135">
          <mxGeometry x="142" width="277" height="40" as="geometry">
            <mxRectangle width="277" height="40" as="alternateBounds" />
          </mxGeometry>
        </mxCell>
        <mxCell id="bV2YTDHsMVYoOdqQBs_l-132" style="shape=tableRow;horizontal=0;startSize=0;swimlaneHead=0;swimlaneBody=0;strokeColor=inherit;top=0;left=0;bottom=0;right=0;collapsible=0;dropTarget=0;fillColor=none;points=[[0,0.5],[1,0.5]];portConstraint=eastwest;fontSize=16;" vertex="1" parent="bV2YTDHsMVYoOdqQBs_l-104">
          <mxGeometry y="160" width="419" height="40" as="geometry" />
        </mxCell>
        <mxCell id="bV2YTDHsMVYoOdqQBs_l-133" value="관재질" style="shape=partialRectangle;html=1;whiteSpace=wrap;connectable=0;strokeColor=inherit;overflow=hidden;fillColor=none;top=0;left=0;bottom=0;right=0;pointerEvents=1;fontSize=16;" vertex="1" parent="bV2YTDHsMVYoOdqQBs_l-132">
          <mxGeometry width="142" height="40" as="geometry">
            <mxRectangle width="142" height="40" as="alternateBounds" />
          </mxGeometry>
        </mxCell>
        <mxCell id="bV2YTDHsMVYoOdqQBs_l-134" style="shape=partialRectangle;html=1;whiteSpace=wrap;connectable=0;strokeColor=inherit;overflow=hidden;fillColor=none;top=0;left=0;bottom=0;right=0;pointerEvents=1;fontSize=16;" vertex="1" parent="bV2YTDHsMVYoOdqQBs_l-132">
          <mxGeometry x="142" width="277" height="40" as="geometry">
            <mxRectangle width="277" height="40" as="alternateBounds" />
          </mxGeometry>
        </mxCell>
        <mxCell id="bV2YTDHsMVYoOdqQBs_l-129" style="shape=tableRow;horizontal=0;startSize=0;swimlaneHead=0;swimlaneBody=0;strokeColor=inherit;top=0;left=0;bottom=0;right=0;collapsible=0;dropTarget=0;fillColor=none;points=[[0,0.5],[1,0.5]];portConstraint=eastwest;fontSize=16;" vertex="1" parent="bV2YTDHsMVYoOdqQBs_l-104">
          <mxGeometry y="200" width="419" height="40" as="geometry" />
        </mxCell>
        <mxCell id="bV2YTDHsMVYoOdqQBs_l-130" value="관경" style="shape=partialRectangle;html=1;whiteSpace=wrap;connectable=0;strokeColor=inherit;overflow=hidden;fillColor=none;top=0;left=0;bottom=0;right=0;pointerEvents=1;fontSize=16;" vertex="1" parent="bV2YTDHsMVYoOdqQBs_l-129">
          <mxGeometry width="142" height="40" as="geometry">
            <mxRectangle width="142" height="40" as="alternateBounds" />
          </mxGeometry>
        </mxCell>
        <mxCell id="bV2YTDHsMVYoOdqQBs_l-131" style="shape=partialRectangle;html=1;whiteSpace=wrap;connectable=0;strokeColor=inherit;overflow=hidden;fillColor=none;top=0;left=0;bottom=0;right=0;pointerEvents=1;fontSize=16;" vertex="1" parent="bV2YTDHsMVYoOdqQBs_l-129">
          <mxGeometry x="142" width="277" height="40" as="geometry">
            <mxRectangle width="277" height="40" as="alternateBounds" />
          </mxGeometry>
        </mxCell>
        <mxCell id="bV2YTDHsMVYoOdqQBs_l-126" style="shape=tableRow;horizontal=0;startSize=0;swimlaneHead=0;swimlaneBody=0;strokeColor=inherit;top=0;left=0;bottom=0;right=0;collapsible=0;dropTarget=0;fillColor=none;points=[[0,0.5],[1,0.5]];portConstraint=eastwest;fontSize=16;" vertex="1" parent="bV2YTDHsMVYoOdqQBs_l-104">
          <mxGeometry y="240" width="419" height="40" as="geometry" />
        </mxCell>
        <mxCell id="bV2YTDHsMVYoOdqQBs_l-127" value="공사번호" style="shape=partialRectangle;html=1;whiteSpace=wrap;connectable=0;strokeColor=inherit;overflow=hidden;fillColor=none;top=0;left=0;bottom=0;right=0;pointerEvents=1;fontSize=16;" vertex="1" parent="bV2YTDHsMVYoOdqQBs_l-126">
          <mxGeometry width="142" height="40" as="geometry">
            <mxRectangle width="142" height="40" as="alternateBounds" />
          </mxGeometry>
        </mxCell>
        <mxCell id="bV2YTDHsMVYoOdqQBs_l-128" value="&amp;nbsp; &amp;nbsp;WT0000000" style="shape=partialRectangle;html=1;whiteSpace=wrap;connectable=0;strokeColor=inherit;overflow=hidden;fillColor=none;top=0;left=0;bottom=0;right=0;pointerEvents=1;fontSize=16;align=left;" vertex="1" parent="bV2YTDHsMVYoOdqQBs_l-126">
          <mxGeometry x="142" width="277" height="40" as="geometry">
            <mxRectangle width="277" height="40" as="alternateBounds" />
          </mxGeometry>
        </mxCell>
        <mxCell id="bV2YTDHsMVYoOdqQBs_l-138" value="대장 조회" style="rounded=0;whiteSpace=wrap;html=1;fontSize=15;" vertex="1" parent="1">
          <mxGeometry x="518" y="1767" width="110" height="26" as="geometry" />
        </mxCell>
        <mxCell id="bV2YTDHsMVYoOdqQBs_l-139" value="" style="rounded=0;whiteSpace=wrap;html=1;" vertex="1" parent="1">
          <mxGeometry x="787" y="1451" width="514" height="377" as="geometry" />
        </mxCell>
        <mxCell id="bV2YTDHsMVYoOdqQBs_l-140" value="&amp;nbsp; &amp;nbsp; &amp;nbsp;대장정보" style="rounded=1;whiteSpace=wrap;html=1;fontSize=15;fontStyle=1;align=left;" vertex="1" parent="1">
          <mxGeometry x="786" y="1447" width="519" height="51" as="geometry" />
        </mxCell>
        <mxCell id="bV2YTDHsMVYoOdqQBs_l-141" value="X" style="text;html=1;align=center;verticalAlign=middle;whiteSpace=wrap;rounded=0;fontStyle=1;fontSize=20;" vertex="1" parent="1">
          <mxGeometry x="1252" y="1457.5" width="60" height="30" as="geometry" />
        </mxCell>
        <mxCell id="bV2YTDHsMVYoOdqQBs_l-142" value="" style="shape=table;startSize=0;container=1;collapsible=0;childLayout=tableLayout;fontSize=16;" vertex="1" parent="1">
          <mxGeometry x="836" y="1566" width="419" height="240" as="geometry" />
        </mxCell>
        <mxCell id="bV2YTDHsMVYoOdqQBs_l-143" value="" style="shape=tableRow;horizontal=0;startSize=0;swimlaneHead=0;swimlaneBody=0;strokeColor=inherit;top=0;left=0;bottom=0;right=0;collapsible=0;dropTarget=0;fillColor=none;points=[[0,0.5],[1,0.5]];portConstraint=eastwest;fontSize=16;" vertex="1" parent="bV2YTDHsMVYoOdqQBs_l-142">
          <mxGeometry width="419" height="40" as="geometry" />
        </mxCell>
        <mxCell id="bV2YTDHsMVYoOdqQBs_l-144" value="공사번호" style="shape=partialRectangle;html=1;whiteSpace=wrap;connectable=0;strokeColor=inherit;overflow=hidden;fillColor=none;top=0;left=0;bottom=0;right=0;pointerEvents=1;fontSize=16;" vertex="1" parent="bV2YTDHsMVYoOdqQBs_l-143">
          <mxGeometry width="142" height="40" as="geometry">
            <mxRectangle width="142" height="40" as="alternateBounds" />
          </mxGeometry>
        </mxCell>
        <mxCell id="bV2YTDHsMVYoOdqQBs_l-145" value="" style="shape=partialRectangle;html=1;whiteSpace=wrap;connectable=0;strokeColor=inherit;overflow=hidden;fillColor=none;top=0;left=0;bottom=0;right=0;pointerEvents=1;fontSize=16;" vertex="1" parent="bV2YTDHsMVYoOdqQBs_l-143">
          <mxGeometry x="142" width="277" height="40" as="geometry">
            <mxRectangle width="277" height="40" as="alternateBounds" />
          </mxGeometry>
        </mxCell>
        <mxCell id="bV2YTDHsMVYoOdqQBs_l-146" style="shape=tableRow;horizontal=0;startSize=0;swimlaneHead=0;swimlaneBody=0;strokeColor=inherit;top=0;left=0;bottom=0;right=0;collapsible=0;dropTarget=0;fillColor=none;points=[[0,0.5],[1,0.5]];portConstraint=eastwest;fontSize=16;" vertex="1" parent="bV2YTDHsMVYoOdqQBs_l-142">
          <mxGeometry y="40" width="419" height="40" as="geometry" />
        </mxCell>
        <mxCell id="bV2YTDHsMVYoOdqQBs_l-147" value="공사명" style="shape=partialRectangle;html=1;whiteSpace=wrap;connectable=0;strokeColor=inherit;overflow=hidden;fillColor=none;top=0;left=0;bottom=0;right=0;pointerEvents=1;fontSize=16;" vertex="1" parent="bV2YTDHsMVYoOdqQBs_l-146">
          <mxGeometry width="142" height="40" as="geometry">
            <mxRectangle width="142" height="40" as="alternateBounds" />
          </mxGeometry>
        </mxCell>
        <mxCell id="bV2YTDHsMVYoOdqQBs_l-148" style="shape=partialRectangle;html=1;whiteSpace=wrap;connectable=0;strokeColor=inherit;overflow=hidden;fillColor=none;top=0;left=0;bottom=0;right=0;pointerEvents=1;fontSize=16;" vertex="1" parent="bV2YTDHsMVYoOdqQBs_l-146">
          <mxGeometry x="142" width="277" height="40" as="geometry">
            <mxRectangle width="277" height="40" as="alternateBounds" />
          </mxGeometry>
        </mxCell>
        <mxCell id="bV2YTDHsMVYoOdqQBs_l-149" style="shape=tableRow;horizontal=0;startSize=0;swimlaneHead=0;swimlaneBody=0;strokeColor=inherit;top=0;left=0;bottom=0;right=0;collapsible=0;dropTarget=0;fillColor=none;points=[[0,0.5],[1,0.5]];portConstraint=eastwest;fontSize=16;" vertex="1" parent="bV2YTDHsMVYoOdqQBs_l-142">
          <mxGeometry y="80" width="419" height="40" as="geometry" />
        </mxCell>
        <mxCell id="bV2YTDHsMVYoOdqQBs_l-150" value="공사구분" style="shape=partialRectangle;html=1;whiteSpace=wrap;connectable=0;strokeColor=inherit;overflow=hidden;fillColor=none;top=0;left=0;bottom=0;right=0;pointerEvents=1;fontSize=16;" vertex="1" parent="bV2YTDHsMVYoOdqQBs_l-149">
          <mxGeometry width="142" height="40" as="geometry">
            <mxRectangle width="142" height="40" as="alternateBounds" />
          </mxGeometry>
        </mxCell>
        <mxCell id="bV2YTDHsMVYoOdqQBs_l-151" style="shape=partialRectangle;html=1;whiteSpace=wrap;connectable=0;strokeColor=inherit;overflow=hidden;fillColor=none;top=0;left=0;bottom=0;right=0;pointerEvents=1;fontSize=16;" vertex="1" parent="bV2YTDHsMVYoOdqQBs_l-149">
          <mxGeometry x="142" width="277" height="40" as="geometry">
            <mxRectangle width="277" height="40" as="alternateBounds" />
          </mxGeometry>
        </mxCell>
        <mxCell id="bV2YTDHsMVYoOdqQBs_l-152" style="shape=tableRow;horizontal=0;startSize=0;swimlaneHead=0;swimlaneBody=0;strokeColor=inherit;top=0;left=0;bottom=0;right=0;collapsible=0;dropTarget=0;fillColor=none;points=[[0,0.5],[1,0.5]];portConstraint=eastwest;fontSize=16;" vertex="1" parent="bV2YTDHsMVYoOdqQBs_l-142">
          <mxGeometry y="120" width="419" height="40" as="geometry" />
        </mxCell>
        <mxCell id="bV2YTDHsMVYoOdqQBs_l-153" value="공사위치" style="shape=partialRectangle;html=1;whiteSpace=wrap;connectable=0;strokeColor=inherit;overflow=hidden;fillColor=none;top=0;left=0;bottom=0;right=0;pointerEvents=1;fontSize=16;" vertex="1" parent="bV2YTDHsMVYoOdqQBs_l-152">
          <mxGeometry width="142" height="40" as="geometry">
            <mxRectangle width="142" height="40" as="alternateBounds" />
          </mxGeometry>
        </mxCell>
        <mxCell id="bV2YTDHsMVYoOdqQBs_l-154" style="shape=partialRectangle;html=1;whiteSpace=wrap;connectable=0;strokeColor=inherit;overflow=hidden;fillColor=none;top=0;left=0;bottom=0;right=0;pointerEvents=1;fontSize=16;" vertex="1" parent="bV2YTDHsMVYoOdqQBs_l-152">
          <mxGeometry x="142" width="277" height="40" as="geometry">
            <mxRectangle width="277" height="40" as="alternateBounds" />
          </mxGeometry>
        </mxCell>
        <mxCell id="bV2YTDHsMVYoOdqQBs_l-155" style="shape=tableRow;horizontal=0;startSize=0;swimlaneHead=0;swimlaneBody=0;strokeColor=inherit;top=0;left=0;bottom=0;right=0;collapsible=0;dropTarget=0;fillColor=none;points=[[0,0.5],[1,0.5]];portConstraint=eastwest;fontSize=16;" vertex="1" parent="bV2YTDHsMVYoOdqQBs_l-142">
          <mxGeometry y="160" width="419" height="40" as="geometry" />
        </mxCell>
        <mxCell id="bV2YTDHsMVYoOdqQBs_l-156" value="" style="shape=partialRectangle;html=1;whiteSpace=wrap;connectable=0;strokeColor=inherit;overflow=hidden;fillColor=none;top=0;left=0;bottom=0;right=0;pointerEvents=1;fontSize=16;" vertex="1" parent="bV2YTDHsMVYoOdqQBs_l-155">
          <mxGeometry width="142" height="40" as="geometry">
            <mxRectangle width="142" height="40" as="alternateBounds" />
          </mxGeometry>
        </mxCell>
        <mxCell id="bV2YTDHsMVYoOdqQBs_l-157" style="shape=partialRectangle;html=1;whiteSpace=wrap;connectable=0;strokeColor=inherit;overflow=hidden;fillColor=none;top=0;left=0;bottom=0;right=0;pointerEvents=1;fontSize=16;" vertex="1" parent="bV2YTDHsMVYoOdqQBs_l-155">
          <mxGeometry x="142" width="277" height="40" as="geometry">
            <mxRectangle width="277" height="40" as="alternateBounds" />
          </mxGeometry>
        </mxCell>
        <mxCell id="bV2YTDHsMVYoOdqQBs_l-158" style="shape=tableRow;horizontal=0;startSize=0;swimlaneHead=0;swimlaneBody=0;strokeColor=inherit;top=0;left=0;bottom=0;right=0;collapsible=0;dropTarget=0;fillColor=none;points=[[0,0.5],[1,0.5]];portConstraint=eastwest;fontSize=16;" vertex="1" parent="bV2YTDHsMVYoOdqQBs_l-142">
          <mxGeometry y="200" width="419" height="40" as="geometry" />
        </mxCell>
        <mxCell id="bV2YTDHsMVYoOdqQBs_l-159" value="" style="shape=partialRectangle;html=1;whiteSpace=wrap;connectable=0;strokeColor=inherit;overflow=hidden;fillColor=none;top=0;left=0;bottom=0;right=0;pointerEvents=1;fontSize=16;" vertex="1" parent="bV2YTDHsMVYoOdqQBs_l-158">
          <mxGeometry width="142" height="40" as="geometry">
            <mxRectangle width="142" height="40" as="alternateBounds" />
          </mxGeometry>
        </mxCell>
        <mxCell id="bV2YTDHsMVYoOdqQBs_l-160" style="shape=partialRectangle;html=1;whiteSpace=wrap;connectable=0;strokeColor=inherit;overflow=hidden;fillColor=none;top=0;left=0;bottom=0;right=0;pointerEvents=1;fontSize=16;" vertex="1" parent="bV2YTDHsMVYoOdqQBs_l-158">
          <mxGeometry x="142" width="277" height="40" as="geometry">
            <mxRectangle width="277" height="40" as="alternateBounds" />
          </mxGeometry>
        </mxCell>
        <mxCell id="bV2YTDHsMVYoOdqQBs_l-165" value="" style="shape=table;startSize=0;container=1;collapsible=0;childLayout=tableLayout;fontSize=16;" vertex="1" parent="1">
          <mxGeometry x="836" y="1524" width="180" height="40" as="geometry" />
        </mxCell>
        <mxCell id="bV2YTDHsMVYoOdqQBs_l-166" value="" style="shape=tableRow;horizontal=0;startSize=0;swimlaneHead=0;swimlaneBody=0;strokeColor=inherit;top=0;left=0;bottom=0;right=0;collapsible=0;dropTarget=0;fillColor=none;points=[[0,0.5],[1,0.5]];portConstraint=eastwest;fontSize=16;" vertex="1" parent="bV2YTDHsMVYoOdqQBs_l-165">
          <mxGeometry width="180" height="40" as="geometry" />
        </mxCell>
        <mxCell id="bV2YTDHsMVYoOdqQBs_l-167" value="공사대장" style="shape=partialRectangle;html=1;whiteSpace=wrap;connectable=0;strokeColor=inherit;overflow=hidden;fillColor=none;top=0;left=0;bottom=0;right=0;pointerEvents=1;fontSize=16;" vertex="1" parent="bV2YTDHsMVYoOdqQBs_l-166">
          <mxGeometry width="90" height="40" as="geometry">
            <mxRectangle width="90" height="40" as="alternateBounds" />
          </mxGeometry>
        </mxCell>
        <mxCell id="bV2YTDHsMVYoOdqQBs_l-168" value="용역대장" style="shape=partialRectangle;html=1;whiteSpace=wrap;connectable=0;strokeColor=inherit;overflow=hidden;fillColor=none;top=0;left=0;bottom=0;right=0;pointerEvents=1;fontSize=16;" vertex="1" parent="bV2YTDHsMVYoOdqQBs_l-166">
          <mxGeometry x="90" width="90" height="40" as="geometry">
            <mxRectangle width="90" height="40" as="alternateBounds" />
          </mxGeometry>
        </mxCell>
        <mxCell id="bV2YTDHsMVYoOdqQBs_l-178" value="" style="endArrow=classic;html=1;rounded=0;strokeWidth=3;" edge="1" parent="1">
          <mxGeometry width="50" height="50" relative="1" as="geometry">
            <mxPoint x="712" y="1635" as="sourcePoint" />
            <mxPoint x="771" y="1635" as="targetPoint" />
          </mxGeometry>
        </mxCell>
        <mxCell id="bV2YTDHsMVYoOdqQBs_l-181" value="" style="rounded=0;whiteSpace=wrap;html=1;" vertex="1" parent="1">
          <mxGeometry x="295" y="2237" width="721" height="425" as="geometry" />
        </mxCell>
        <mxCell id="bV2YTDHsMVYoOdqQBs_l-182" value="레이어" style="rounded=0;whiteSpace=wrap;html=1;" vertex="1" parent="1">
          <mxGeometry x="131" y="2237" width="165" height="39" as="geometry" />
        </mxCell>
        <mxCell id="bV2YTDHsMVYoOdqQBs_l-183" value="" style="rounded=0;whiteSpace=wrap;html=1;" vertex="1" parent="1">
          <mxGeometry x="131" y="2275" width="164" height="387" as="geometry" />
        </mxCell>
        <mxCell id="bV2YTDHsMVYoOdqQBs_l-184" value="공유재산 읍면동 통계" style="rounded=1;whiteSpace=wrap;html=1;" vertex="1" parent="1">
          <mxGeometry x="311" y="2192" width="129" height="37" as="geometry" />
        </mxCell>
        <mxCell id="bV2YTDHsMVYoOdqQBs_l-185" value="공유재산 목록" style="rounded=1;whiteSpace=wrap;html=1;" vertex="1" parent="1">
          <mxGeometry x="447" y="2192" width="100" height="37" as="geometry" />
        </mxCell>
        <mxCell id="bV2YTDHsMVYoOdqQBs_l-186" value="공유재산 대부현황" style="rounded=1;whiteSpace=wrap;html=1;" vertex="1" parent="1">
          <mxGeometry x="554" y="2192" width="120" height="37" as="geometry" />
        </mxCell>
        <mxCell id="bV2YTDHsMVYoOdqQBs_l-187" value="중요재산" style="rounded=1;whiteSpace=wrap;html=1;" vertex="1" parent="1">
          <mxGeometry x="791" y="2248" width="68" height="29" as="geometry" />
        </mxCell>
        <mxCell id="bV2YTDHsMVYoOdqQBs_l-188" value="반경조회" style="rounded=1;whiteSpace=wrap;html=1;" vertex="1" parent="1">
          <mxGeometry x="865" y="2248" width="65" height="29" as="geometry" />
        </mxCell>
        <mxCell id="bV2YTDHsMVYoOdqQBs_l-189" value="면적조회" style="rounded=1;whiteSpace=wrap;html=1;" vertex="1" parent="1">
          <mxGeometry x="936" y="2248" width="65" height="29" as="geometry" />
        </mxCell>
        <mxCell id="bV2YTDHsMVYoOdqQBs_l-190" value="배경지도" style="rounded=1;whiteSpace=wrap;html=1;" vertex="1" parent="1">
          <mxGeometry x="870" y="2171" width="71" height="58" as="geometry" />
        </mxCell>
        <mxCell id="bV2YTDHsMVYoOdqQBs_l-191" value="과거&lt;div&gt;항공영상&lt;/div&gt;" style="rounded=1;whiteSpace=wrap;html=1;" vertex="1" parent="1">
          <mxGeometry x="949" y="2171" width="71" height="58" as="geometry" />
        </mxCell>
        <mxCell id="bV2YTDHsMVYoOdqQBs_l-193" value="" style="rounded=0;whiteSpace=wrap;html=1;" vertex="1" parent="1">
          <mxGeometry x="115.5" y="2764" width="606.5" height="377" as="geometry" />
        </mxCell>
        <mxCell id="bV2YTDHsMVYoOdqQBs_l-194" value="&amp;nbsp; 공유재산 읍면동 통계" style="rounded=1;whiteSpace=wrap;html=1;fontSize=15;fontStyle=1;align=left;" vertex="1" parent="1">
          <mxGeometry x="114.5" y="2760" width="607.5" height="51" as="geometry" />
        </mxCell>
        <mxCell id="bV2YTDHsMVYoOdqQBs_l-195" value="X" style="text;html=1;align=center;verticalAlign=middle;whiteSpace=wrap;rounded=0;fontStyle=1;fontSize=20;" vertex="1" parent="1">
          <mxGeometry x="669.33" y="2770.5" width="40.5" height="30" as="geometry" />
        </mxCell>
        <mxCell id="bV2YTDHsMVYoOdqQBs_l-196" value="" style="shape=table;startSize=0;container=1;collapsible=0;childLayout=tableLayout;fontSize=16;" vertex="1" parent="1">
          <mxGeometry x="144.5" y="2832" width="548.3333333333331" height="280" as="geometry" />
        </mxCell>
        <mxCell id="bV2YTDHsMVYoOdqQBs_l-197" value="" style="shape=tableRow;horizontal=0;startSize=0;swimlaneHead=0;swimlaneBody=0;strokeColor=inherit;top=0;left=0;bottom=0;right=0;collapsible=0;dropTarget=0;fillColor=none;points=[[0,0.5],[1,0.5]];portConstraint=eastwest;fontSize=16;" vertex="1" parent="bV2YTDHsMVYoOdqQBs_l-196">
          <mxGeometry width="548.3333333333331" height="40" as="geometry" />
        </mxCell>
        <mxCell id="bV2YTDHsMVYoOdqQBs_l-198" value="시" style="shape=partialRectangle;html=1;whiteSpace=wrap;connectable=0;strokeColor=inherit;overflow=hidden;fillColor=none;top=0;left=0;bottom=0;right=0;pointerEvents=1;fontSize=16;" vertex="1" parent="bV2YTDHsMVYoOdqQBs_l-197">
          <mxGeometry width="89" height="40" as="geometry">
            <mxRectangle width="89" height="40" as="alternateBounds" />
          </mxGeometry>
        </mxCell>
        <mxCell id="bV2YTDHsMVYoOdqQBs_l-199" value="읍면동" style="shape=partialRectangle;html=1;whiteSpace=wrap;connectable=0;strokeColor=inherit;overflow=hidden;fillColor=none;top=0;left=0;bottom=0;right=0;pointerEvents=1;fontSize=16;" vertex="1" parent="bV2YTDHsMVYoOdqQBs_l-197">
          <mxGeometry x="89" width="106" height="40" as="geometry">
            <mxRectangle width="106" height="40" as="alternateBounds" />
          </mxGeometry>
        </mxCell>
        <mxCell id="bV2YTDHsMVYoOdqQBs_l-233" value="건수" style="shape=partialRectangle;html=1;whiteSpace=wrap;connectable=0;strokeColor=inherit;overflow=hidden;fillColor=none;top=0;left=0;bottom=0;right=0;pointerEvents=1;fontSize=16;" vertex="1" parent="bV2YTDHsMVYoOdqQBs_l-197">
          <mxGeometry x="195" width="94" height="40" as="geometry">
            <mxRectangle width="94" height="40" as="alternateBounds" />
          </mxGeometry>
        </mxCell>
        <mxCell id="bV2YTDHsMVYoOdqQBs_l-226" value="면적" style="shape=partialRectangle;html=1;whiteSpace=wrap;connectable=0;strokeColor=inherit;overflow=hidden;fillColor=none;top=0;left=0;bottom=0;right=0;pointerEvents=1;fontSize=16;" vertex="1" parent="bV2YTDHsMVYoOdqQBs_l-197">
          <mxGeometry x="289" width="122" height="40" as="geometry">
            <mxRectangle width="122" height="40" as="alternateBounds" />
          </mxGeometry>
        </mxCell>
        <mxCell id="bV2YTDHsMVYoOdqQBs_l-219" value="가격" style="shape=partialRectangle;html=1;whiteSpace=wrap;connectable=0;strokeColor=inherit;overflow=hidden;fillColor=none;top=0;left=0;bottom=0;right=0;pointerEvents=1;fontSize=16;" vertex="1" parent="bV2YTDHsMVYoOdqQBs_l-197">
          <mxGeometry x="411" width="137" height="40" as="geometry">
            <mxRectangle width="137" height="40" as="alternateBounds" />
          </mxGeometry>
        </mxCell>
        <mxCell id="bV2YTDHsMVYoOdqQBs_l-200" style="shape=tableRow;horizontal=0;startSize=0;swimlaneHead=0;swimlaneBody=0;strokeColor=inherit;top=0;left=0;bottom=0;right=0;collapsible=0;dropTarget=0;fillColor=none;points=[[0,0.5],[1,0.5]];portConstraint=eastwest;fontSize=16;" vertex="1" parent="bV2YTDHsMVYoOdqQBs_l-196">
          <mxGeometry y="40" width="548.3333333333331" height="40" as="geometry" />
        </mxCell>
        <mxCell id="bV2YTDHsMVYoOdqQBs_l-201" value="" style="shape=partialRectangle;html=1;whiteSpace=wrap;connectable=0;strokeColor=inherit;overflow=hidden;fillColor=none;top=0;left=0;bottom=0;right=0;pointerEvents=1;fontSize=16;" vertex="1" parent="bV2YTDHsMVYoOdqQBs_l-200">
          <mxGeometry width="89" height="40" as="geometry">
            <mxRectangle width="89" height="40" as="alternateBounds" />
          </mxGeometry>
        </mxCell>
        <mxCell id="bV2YTDHsMVYoOdqQBs_l-202" style="shape=partialRectangle;html=1;whiteSpace=wrap;connectable=0;strokeColor=inherit;overflow=hidden;fillColor=none;top=0;left=0;bottom=0;right=0;pointerEvents=1;fontSize=16;" vertex="1" parent="bV2YTDHsMVYoOdqQBs_l-200">
          <mxGeometry x="89" width="106" height="40" as="geometry">
            <mxRectangle width="106" height="40" as="alternateBounds" />
          </mxGeometry>
        </mxCell>
        <mxCell id="bV2YTDHsMVYoOdqQBs_l-234" style="shape=partialRectangle;html=1;whiteSpace=wrap;connectable=0;strokeColor=inherit;overflow=hidden;fillColor=none;top=0;left=0;bottom=0;right=0;pointerEvents=1;fontSize=16;" vertex="1" parent="bV2YTDHsMVYoOdqQBs_l-200">
          <mxGeometry x="195" width="94" height="40" as="geometry">
            <mxRectangle width="94" height="40" as="alternateBounds" />
          </mxGeometry>
        </mxCell>
        <mxCell id="bV2YTDHsMVYoOdqQBs_l-227" style="shape=partialRectangle;html=1;whiteSpace=wrap;connectable=0;strokeColor=inherit;overflow=hidden;fillColor=none;top=0;left=0;bottom=0;right=0;pointerEvents=1;fontSize=16;" vertex="1" parent="bV2YTDHsMVYoOdqQBs_l-200">
          <mxGeometry x="289" width="122" height="40" as="geometry">
            <mxRectangle width="122" height="40" as="alternateBounds" />
          </mxGeometry>
        </mxCell>
        <mxCell id="bV2YTDHsMVYoOdqQBs_l-220" style="shape=partialRectangle;html=1;whiteSpace=wrap;connectable=0;strokeColor=inherit;overflow=hidden;fillColor=none;top=0;left=0;bottom=0;right=0;pointerEvents=1;fontSize=16;" vertex="1" parent="bV2YTDHsMVYoOdqQBs_l-200">
          <mxGeometry x="411" width="137" height="40" as="geometry">
            <mxRectangle width="137" height="40" as="alternateBounds" />
          </mxGeometry>
        </mxCell>
        <mxCell id="bV2YTDHsMVYoOdqQBs_l-203" style="shape=tableRow;horizontal=0;startSize=0;swimlaneHead=0;swimlaneBody=0;strokeColor=inherit;top=0;left=0;bottom=0;right=0;collapsible=0;dropTarget=0;fillColor=none;points=[[0,0.5],[1,0.5]];portConstraint=eastwest;fontSize=16;" vertex="1" parent="bV2YTDHsMVYoOdqQBs_l-196">
          <mxGeometry y="80" width="548.3333333333331" height="40" as="geometry" />
        </mxCell>
        <mxCell id="bV2YTDHsMVYoOdqQBs_l-204" value="" style="shape=partialRectangle;html=1;whiteSpace=wrap;connectable=0;strokeColor=inherit;overflow=hidden;fillColor=none;top=0;left=0;bottom=0;right=0;pointerEvents=1;fontSize=16;" vertex="1" parent="bV2YTDHsMVYoOdqQBs_l-203">
          <mxGeometry width="89" height="40" as="geometry">
            <mxRectangle width="89" height="40" as="alternateBounds" />
          </mxGeometry>
        </mxCell>
        <mxCell id="bV2YTDHsMVYoOdqQBs_l-205" style="shape=partialRectangle;html=1;whiteSpace=wrap;connectable=0;strokeColor=inherit;overflow=hidden;fillColor=none;top=0;left=0;bottom=0;right=0;pointerEvents=1;fontSize=16;" vertex="1" parent="bV2YTDHsMVYoOdqQBs_l-203">
          <mxGeometry x="89" width="106" height="40" as="geometry">
            <mxRectangle width="106" height="40" as="alternateBounds" />
          </mxGeometry>
        </mxCell>
        <mxCell id="bV2YTDHsMVYoOdqQBs_l-235" style="shape=partialRectangle;html=1;whiteSpace=wrap;connectable=0;strokeColor=inherit;overflow=hidden;fillColor=none;top=0;left=0;bottom=0;right=0;pointerEvents=1;fontSize=16;" vertex="1" parent="bV2YTDHsMVYoOdqQBs_l-203">
          <mxGeometry x="195" width="94" height="40" as="geometry">
            <mxRectangle width="94" height="40" as="alternateBounds" />
          </mxGeometry>
        </mxCell>
        <mxCell id="bV2YTDHsMVYoOdqQBs_l-228" style="shape=partialRectangle;html=1;whiteSpace=wrap;connectable=0;strokeColor=inherit;overflow=hidden;fillColor=none;top=0;left=0;bottom=0;right=0;pointerEvents=1;fontSize=16;" vertex="1" parent="bV2YTDHsMVYoOdqQBs_l-203">
          <mxGeometry x="289" width="122" height="40" as="geometry">
            <mxRectangle width="122" height="40" as="alternateBounds" />
          </mxGeometry>
        </mxCell>
        <mxCell id="bV2YTDHsMVYoOdqQBs_l-221" style="shape=partialRectangle;html=1;whiteSpace=wrap;connectable=0;strokeColor=inherit;overflow=hidden;fillColor=none;top=0;left=0;bottom=0;right=0;pointerEvents=1;fontSize=16;" vertex="1" parent="bV2YTDHsMVYoOdqQBs_l-203">
          <mxGeometry x="411" width="137" height="40" as="geometry">
            <mxRectangle width="137" height="40" as="alternateBounds" />
          </mxGeometry>
        </mxCell>
        <mxCell id="bV2YTDHsMVYoOdqQBs_l-206" style="shape=tableRow;horizontal=0;startSize=0;swimlaneHead=0;swimlaneBody=0;strokeColor=inherit;top=0;left=0;bottom=0;right=0;collapsible=0;dropTarget=0;fillColor=none;points=[[0,0.5],[1,0.5]];portConstraint=eastwest;fontSize=16;" vertex="1" parent="bV2YTDHsMVYoOdqQBs_l-196">
          <mxGeometry y="120" width="548.3333333333331" height="40" as="geometry" />
        </mxCell>
        <mxCell id="bV2YTDHsMVYoOdqQBs_l-207" value="" style="shape=partialRectangle;html=1;whiteSpace=wrap;connectable=0;strokeColor=inherit;overflow=hidden;fillColor=none;top=0;left=0;bottom=0;right=0;pointerEvents=1;fontSize=16;" vertex="1" parent="bV2YTDHsMVYoOdqQBs_l-206">
          <mxGeometry width="89" height="40" as="geometry">
            <mxRectangle width="89" height="40" as="alternateBounds" />
          </mxGeometry>
        </mxCell>
        <mxCell id="bV2YTDHsMVYoOdqQBs_l-208" style="shape=partialRectangle;html=1;whiteSpace=wrap;connectable=0;strokeColor=inherit;overflow=hidden;fillColor=none;top=0;left=0;bottom=0;right=0;pointerEvents=1;fontSize=16;" vertex="1" parent="bV2YTDHsMVYoOdqQBs_l-206">
          <mxGeometry x="89" width="106" height="40" as="geometry">
            <mxRectangle width="106" height="40" as="alternateBounds" />
          </mxGeometry>
        </mxCell>
        <mxCell id="bV2YTDHsMVYoOdqQBs_l-236" style="shape=partialRectangle;html=1;whiteSpace=wrap;connectable=0;strokeColor=inherit;overflow=hidden;fillColor=none;top=0;left=0;bottom=0;right=0;pointerEvents=1;fontSize=16;" vertex="1" parent="bV2YTDHsMVYoOdqQBs_l-206">
          <mxGeometry x="195" width="94" height="40" as="geometry">
            <mxRectangle width="94" height="40" as="alternateBounds" />
          </mxGeometry>
        </mxCell>
        <mxCell id="bV2YTDHsMVYoOdqQBs_l-229" style="shape=partialRectangle;html=1;whiteSpace=wrap;connectable=0;strokeColor=inherit;overflow=hidden;fillColor=none;top=0;left=0;bottom=0;right=0;pointerEvents=1;fontSize=16;" vertex="1" parent="bV2YTDHsMVYoOdqQBs_l-206">
          <mxGeometry x="289" width="122" height="40" as="geometry">
            <mxRectangle width="122" height="40" as="alternateBounds" />
          </mxGeometry>
        </mxCell>
        <mxCell id="bV2YTDHsMVYoOdqQBs_l-222" style="shape=partialRectangle;html=1;whiteSpace=wrap;connectable=0;strokeColor=inherit;overflow=hidden;fillColor=none;top=0;left=0;bottom=0;right=0;pointerEvents=1;fontSize=16;" vertex="1" parent="bV2YTDHsMVYoOdqQBs_l-206">
          <mxGeometry x="411" width="137" height="40" as="geometry">
            <mxRectangle width="137" height="40" as="alternateBounds" />
          </mxGeometry>
        </mxCell>
        <mxCell id="bV2YTDHsMVYoOdqQBs_l-209" style="shape=tableRow;horizontal=0;startSize=0;swimlaneHead=0;swimlaneBody=0;strokeColor=inherit;top=0;left=0;bottom=0;right=0;collapsible=0;dropTarget=0;fillColor=none;points=[[0,0.5],[1,0.5]];portConstraint=eastwest;fontSize=16;" vertex="1" parent="bV2YTDHsMVYoOdqQBs_l-196">
          <mxGeometry y="160" width="548.3333333333331" height="40" as="geometry" />
        </mxCell>
        <mxCell id="bV2YTDHsMVYoOdqQBs_l-210" value="" style="shape=partialRectangle;html=1;whiteSpace=wrap;connectable=0;strokeColor=inherit;overflow=hidden;fillColor=none;top=0;left=0;bottom=0;right=0;pointerEvents=1;fontSize=16;" vertex="1" parent="bV2YTDHsMVYoOdqQBs_l-209">
          <mxGeometry width="89" height="40" as="geometry">
            <mxRectangle width="89" height="40" as="alternateBounds" />
          </mxGeometry>
        </mxCell>
        <mxCell id="bV2YTDHsMVYoOdqQBs_l-211" style="shape=partialRectangle;html=1;whiteSpace=wrap;connectable=0;strokeColor=inherit;overflow=hidden;fillColor=none;top=0;left=0;bottom=0;right=0;pointerEvents=1;fontSize=16;" vertex="1" parent="bV2YTDHsMVYoOdqQBs_l-209">
          <mxGeometry x="89" width="106" height="40" as="geometry">
            <mxRectangle width="106" height="40" as="alternateBounds" />
          </mxGeometry>
        </mxCell>
        <mxCell id="bV2YTDHsMVYoOdqQBs_l-237" style="shape=partialRectangle;html=1;whiteSpace=wrap;connectable=0;strokeColor=inherit;overflow=hidden;fillColor=none;top=0;left=0;bottom=0;right=0;pointerEvents=1;fontSize=16;" vertex="1" parent="bV2YTDHsMVYoOdqQBs_l-209">
          <mxGeometry x="195" width="94" height="40" as="geometry">
            <mxRectangle width="94" height="40" as="alternateBounds" />
          </mxGeometry>
        </mxCell>
        <mxCell id="bV2YTDHsMVYoOdqQBs_l-230" style="shape=partialRectangle;html=1;whiteSpace=wrap;connectable=0;strokeColor=inherit;overflow=hidden;fillColor=none;top=0;left=0;bottom=0;right=0;pointerEvents=1;fontSize=16;" vertex="1" parent="bV2YTDHsMVYoOdqQBs_l-209">
          <mxGeometry x="289" width="122" height="40" as="geometry">
            <mxRectangle width="122" height="40" as="alternateBounds" />
          </mxGeometry>
        </mxCell>
        <mxCell id="bV2YTDHsMVYoOdqQBs_l-223" style="shape=partialRectangle;html=1;whiteSpace=wrap;connectable=0;strokeColor=inherit;overflow=hidden;fillColor=none;top=0;left=0;bottom=0;right=0;pointerEvents=1;fontSize=16;" vertex="1" parent="bV2YTDHsMVYoOdqQBs_l-209">
          <mxGeometry x="411" width="137" height="40" as="geometry">
            <mxRectangle width="137" height="40" as="alternateBounds" />
          </mxGeometry>
        </mxCell>
        <mxCell id="bV2YTDHsMVYoOdqQBs_l-212" style="shape=tableRow;horizontal=0;startSize=0;swimlaneHead=0;swimlaneBody=0;strokeColor=inherit;top=0;left=0;bottom=0;right=0;collapsible=0;dropTarget=0;fillColor=none;points=[[0,0.5],[1,0.5]];portConstraint=eastwest;fontSize=16;" vertex="1" parent="bV2YTDHsMVYoOdqQBs_l-196">
          <mxGeometry y="200" width="548.3333333333331" height="40" as="geometry" />
        </mxCell>
        <mxCell id="bV2YTDHsMVYoOdqQBs_l-213" value="" style="shape=partialRectangle;html=1;whiteSpace=wrap;connectable=0;strokeColor=inherit;overflow=hidden;fillColor=none;top=0;left=0;bottom=0;right=0;pointerEvents=1;fontSize=16;" vertex="1" parent="bV2YTDHsMVYoOdqQBs_l-212">
          <mxGeometry width="89" height="40" as="geometry">
            <mxRectangle width="89" height="40" as="alternateBounds" />
          </mxGeometry>
        </mxCell>
        <mxCell id="bV2YTDHsMVYoOdqQBs_l-214" style="shape=partialRectangle;html=1;whiteSpace=wrap;connectable=0;strokeColor=inherit;overflow=hidden;fillColor=none;top=0;left=0;bottom=0;right=0;pointerEvents=1;fontSize=16;" vertex="1" parent="bV2YTDHsMVYoOdqQBs_l-212">
          <mxGeometry x="89" width="106" height="40" as="geometry">
            <mxRectangle width="106" height="40" as="alternateBounds" />
          </mxGeometry>
        </mxCell>
        <mxCell id="bV2YTDHsMVYoOdqQBs_l-238" style="shape=partialRectangle;html=1;whiteSpace=wrap;connectable=0;strokeColor=inherit;overflow=hidden;fillColor=none;top=0;left=0;bottom=0;right=0;pointerEvents=1;fontSize=16;" vertex="1" parent="bV2YTDHsMVYoOdqQBs_l-212">
          <mxGeometry x="195" width="94" height="40" as="geometry">
            <mxRectangle width="94" height="40" as="alternateBounds" />
          </mxGeometry>
        </mxCell>
        <mxCell id="bV2YTDHsMVYoOdqQBs_l-231" style="shape=partialRectangle;html=1;whiteSpace=wrap;connectable=0;strokeColor=inherit;overflow=hidden;fillColor=none;top=0;left=0;bottom=0;right=0;pointerEvents=1;fontSize=16;" vertex="1" parent="bV2YTDHsMVYoOdqQBs_l-212">
          <mxGeometry x="289" width="122" height="40" as="geometry">
            <mxRectangle width="122" height="40" as="alternateBounds" />
          </mxGeometry>
        </mxCell>
        <mxCell id="bV2YTDHsMVYoOdqQBs_l-224" style="shape=partialRectangle;html=1;whiteSpace=wrap;connectable=0;strokeColor=inherit;overflow=hidden;fillColor=none;top=0;left=0;bottom=0;right=0;pointerEvents=1;fontSize=16;" vertex="1" parent="bV2YTDHsMVYoOdqQBs_l-212">
          <mxGeometry x="411" width="137" height="40" as="geometry">
            <mxRectangle width="137" height="40" as="alternateBounds" />
          </mxGeometry>
        </mxCell>
        <mxCell id="bV2YTDHsMVYoOdqQBs_l-215" style="shape=tableRow;horizontal=0;startSize=0;swimlaneHead=0;swimlaneBody=0;strokeColor=inherit;top=0;left=0;bottom=0;right=0;collapsible=0;dropTarget=0;fillColor=none;points=[[0,0.5],[1,0.5]];portConstraint=eastwest;fontSize=16;" vertex="1" parent="bV2YTDHsMVYoOdqQBs_l-196">
          <mxGeometry y="240" width="548.3333333333331" height="40" as="geometry" />
        </mxCell>
        <mxCell id="bV2YTDHsMVYoOdqQBs_l-216" value="" style="shape=partialRectangle;html=1;whiteSpace=wrap;connectable=0;strokeColor=inherit;overflow=hidden;fillColor=none;top=0;left=0;bottom=0;right=0;pointerEvents=1;fontSize=16;" vertex="1" parent="bV2YTDHsMVYoOdqQBs_l-215">
          <mxGeometry width="89" height="40" as="geometry">
            <mxRectangle width="89" height="40" as="alternateBounds" />
          </mxGeometry>
        </mxCell>
        <mxCell id="bV2YTDHsMVYoOdqQBs_l-217" value="" style="shape=partialRectangle;html=1;whiteSpace=wrap;connectable=0;strokeColor=inherit;overflow=hidden;fillColor=none;top=0;left=0;bottom=0;right=0;pointerEvents=1;fontSize=16;align=left;" vertex="1" parent="bV2YTDHsMVYoOdqQBs_l-215">
          <mxGeometry x="89" width="106" height="40" as="geometry">
            <mxRectangle width="106" height="40" as="alternateBounds" />
          </mxGeometry>
        </mxCell>
        <mxCell id="bV2YTDHsMVYoOdqQBs_l-239" style="shape=partialRectangle;html=1;whiteSpace=wrap;connectable=0;strokeColor=inherit;overflow=hidden;fillColor=none;top=0;left=0;bottom=0;right=0;pointerEvents=1;fontSize=16;align=left;" vertex="1" parent="bV2YTDHsMVYoOdqQBs_l-215">
          <mxGeometry x="195" width="94" height="40" as="geometry">
            <mxRectangle width="94" height="40" as="alternateBounds" />
          </mxGeometry>
        </mxCell>
        <mxCell id="bV2YTDHsMVYoOdqQBs_l-232" style="shape=partialRectangle;html=1;whiteSpace=wrap;connectable=0;strokeColor=inherit;overflow=hidden;fillColor=none;top=0;left=0;bottom=0;right=0;pointerEvents=1;fontSize=16;align=left;" vertex="1" parent="bV2YTDHsMVYoOdqQBs_l-215">
          <mxGeometry x="289" width="122" height="40" as="geometry">
            <mxRectangle width="122" height="40" as="alternateBounds" />
          </mxGeometry>
        </mxCell>
        <mxCell id="bV2YTDHsMVYoOdqQBs_l-225" style="shape=partialRectangle;html=1;whiteSpace=wrap;connectable=0;strokeColor=inherit;overflow=hidden;fillColor=none;top=0;left=0;bottom=0;right=0;pointerEvents=1;fontSize=16;align=left;" vertex="1" parent="bV2YTDHsMVYoOdqQBs_l-215">
          <mxGeometry x="411" width="137" height="40" as="geometry">
            <mxRectangle width="137" height="40" as="alternateBounds" />
          </mxGeometry>
        </mxCell>
      </root>
    </mxGraphModel>
  </diagram>
</mxfile>
